<svg width="232" height="161" viewBox="0 0 232 161" fill="none" xmlns="http://www.w3.org/2000/svg">
<g clip-path="url(#clip0_0_1122)">
<path d="M105.493 65.2542H0.747986V0H105.493V65.2542Z" fill="white"/>
<path d="M105.493 65.2542H0.747986V0H105.493V65.2542ZM1.22627 64.7779H105.015V0.476309H1.22627V64.7779Z" fill="#3F3D56"/>
<path d="M92.6988 155.634H32.9129V90.3794H92.6988V155.634Z" fill="white"/>
<path d="M92.6988 155.634H32.9129V90.3794H92.6988V155.634ZM33.3912 155.157H92.2205V90.8557H33.3912V155.157Z" fill="#3F3D56"/>
<path d="M84.5678 149.471H72.1324V149.973H84.5678V149.471Z" fill="#3F3D56"/>
<path d="M84.5678 150.977H72.1324V151.479H84.5678V150.977Z" fill="#3F3D56"/>
<path d="M84.5678 152.483H72.1324V152.985H84.5678V152.483Z" fill="#3F3D56"/>
<path d="M62.8057 102.049V107.289C65.9273 107.289 68.9789 108.211 71.5745 109.938C74.1701 111.665 76.1931 114.12 77.3877 116.992C78.5823 119.864 78.8949 123.024 78.2859 126.073C77.6769 129.122 76.1736 131.923 73.9663 134.121L77.6865 137.826C80.6296 134.895 82.6339 131.161 83.446 127.095C84.258 123.03 83.8412 118.816 82.2484 114.987C80.6556 111.157 77.9582 107.884 74.4975 105.581C71.0367 103.278 66.9679 102.049 62.8057 102.049Z" fill="#E6E6E6"/>
<path d="M77.6866 137.826L73.9664 134.121C71.268 136.809 67.6827 138.432 63.8749 138.689C60.0671 138.946 56.2947 137.82 53.2566 135.519L50.0722 139.692C54.1237 142.759 59.1537 144.259 64.2308 143.916C69.308 143.573 74.0883 141.409 77.6866 137.826Z" fill="#575A89"/>
<path d="M47.0222 123.007C47.0222 120.943 47.4305 118.899 48.2237 116.992C49.0169 115.085 50.1795 113.352 51.6451 111.892C53.1107 110.433 54.8507 109.275 56.7656 108.485C58.6806 107.695 60.733 107.289 62.8057 107.289V102.049C58.4003 102.049 54.1059 103.426 50.5279 105.986C46.9499 108.545 44.2687 112.158 42.8623 116.316C41.4558 120.474 41.3951 124.966 42.6886 129.16C43.9821 133.354 46.5646 137.038 50.0721 139.692L53.2565 135.52C51.3176 134.055 49.7457 132.163 48.6641 129.992C47.5824 127.821 47.0205 125.43 47.0222 123.007Z" fill="#6C63FF"/>
<path d="M47.0222 123.007C47.0222 120.943 47.4305 118.899 48.2237 116.992C49.0169 115.085 50.1795 113.352 51.6451 111.892C53.1107 110.433 54.8507 109.275 56.7656 108.485C58.6806 107.695 60.733 107.289 62.8057 107.289V102.049C58.4003 102.049 54.1059 103.426 50.5279 105.986C46.9499 108.545 44.2687 112.158 42.8623 116.316C41.4558 120.474 41.3951 124.966 42.6886 129.16C43.9821 133.354 46.5646 137.038 50.0721 139.692L53.2565 135.52C51.3176 134.055 49.7457 132.163 48.6641 129.992C47.5824 127.821 47.0205 125.43 47.0222 123.007Z" fill="url(#paint0_linear_0_1122)"/>
<path d="M181.182 115.148H121.396V49.8936H181.182V115.148Z" fill="white"/>
<path d="M140.767 89.7842H130.005V106.931H140.767V89.7842Z" fill="#575A89"/>
<path d="M156.311 78.1147H145.549V106.931H156.311V78.1147Z" fill="#E6E6E6"/>
<path d="M171.855 64.54H161.094V106.931H171.855V64.54Z" fill="#6C63FF"/>
<path d="M171.855 64.54H161.094V106.931H171.855V64.54Z" fill="url(#paint1_linear_0_1122)"/>
<path d="M175.442 107.408H127.135V57.6333H127.614V106.931H175.442V107.408Z" fill="#3F3D56"/>
<path d="M231.473 160.75H180.146C180.139 160.75 180.132 160.747 180.128 160.743C180.123 160.738 180.121 160.732 180.121 160.726C180.121 160.721 180.123 160.715 180.128 160.71C180.132 160.706 180.139 160.703 180.146 160.703H231.473C231.48 160.703 231.487 160.706 231.491 160.71C231.496 160.715 231.498 160.721 231.498 160.726C231.498 160.732 231.496 160.738 231.491 160.743C231.487 160.747 231.48 160.75 231.473 160.75Z" fill="white" stroke="black" stroke-width="0.5"/>
<path d="M90.9463 51.6068H15.2945C15.2317 51.6068 15.1715 51.582 15.1271 51.5378C15.0827 51.4935 15.0577 51.4336 15.0577 51.371V15.2612C15.0577 15.1986 15.0827 15.1387 15.1271 15.0944C15.1715 15.0502 15.2317 15.0254 15.2945 15.0254C15.3573 15.0254 15.4175 15.0502 15.4619 15.0944C15.5063 15.1387 15.5312 15.1986 15.5312 15.2612V51.1353H90.9463C90.9774 51.1352 91.0083 51.1412 91.0371 51.153C91.066 51.1648 91.0921 51.1821 91.1142 51.204C91.1363 51.2259 91.1538 51.252 91.1657 51.2806C91.1777 51.3093 91.1838 51.34 91.1838 51.371C91.1838 51.4021 91.1777 51.4328 91.1657 51.4615C91.1538 51.4901 91.1363 51.5161 91.1142 51.538C91.0921 51.5599 91.066 51.5773 91.0371 51.5891C91.0083 51.6009 90.9774 51.6069 90.9463 51.6068Z" fill="#3F3D56"/>
<path d="M31.4581 49.0137H24.5773C24.3909 49.0135 24.2123 48.9397 24.0805 48.8085C23.9488 48.6773 23.8747 48.4994 23.8745 48.3138V38.8678C23.8747 38.6823 23.9488 38.5044 24.0805 38.3732C24.2123 38.242 24.3909 38.1682 24.5773 38.168H31.4581C31.6444 38.1682 31.823 38.242 31.9548 38.3732C32.0865 38.5044 32.1607 38.6823 32.1609 38.8678V48.3138C32.1607 48.4994 32.0865 48.6773 31.9548 48.8085C31.823 48.9397 31.6444 49.0135 31.4581 49.0137Z" fill="url(#paint2_linear_0_1122)"/>
<path d="M44.0061 49.0137H37.1253C36.939 49.0135 36.7603 48.9397 36.6286 48.8085C36.4968 48.6773 36.4227 48.4994 36.4225 48.3138V29.9083C36.4227 29.7228 36.4968 29.5449 36.6286 29.4137C36.7603 29.2825 36.939 29.2087 37.1253 29.2085H44.0061C44.1924 29.2087 44.3711 29.2825 44.5028 29.4137C44.6346 29.5449 44.7087 29.7228 44.7089 29.9083V48.3138C44.7087 48.4994 44.6346 48.6773 44.5028 48.8085C44.3711 48.9397 44.1924 49.0135 44.0061 49.0137Z" fill="url(#paint3_linear_0_1122)"/>
<path d="M56.5542 49.0137H49.6733C49.487 49.0135 49.3084 48.9397 49.1766 48.8085C49.0449 48.6773 48.9707 48.4994 48.9705 48.3138V38.8678C48.9707 38.6823 49.0449 38.5044 49.1766 38.3732C49.3084 38.242 49.487 38.1682 49.6733 38.168H56.5542C56.7405 38.1682 56.9191 38.242 57.0509 38.3732C57.1826 38.5044 57.2568 38.6823 57.257 38.8678V48.3138C57.2568 48.4994 57.1826 48.6773 57.0509 48.8085C56.9191 48.9397 56.7405 49.0135 56.5542 49.0137Z" fill="url(#paint4_linear_0_1122)"/>
<path d="M69.1022 49.0134H62.2214C62.0393 49.0173 61.8631 48.9491 61.7313 48.8239C61.5996 48.6987 61.5231 48.5265 61.5186 48.3452V26.3397C61.5231 26.1584 61.5996 25.9862 61.7313 25.861C61.8631 25.7358 62.0393 25.6676 62.2214 25.6715H69.1022C69.2843 25.6676 69.4605 25.7358 69.5922 25.861C69.7239 25.9862 69.8005 26.1584 69.805 26.3397V48.3452C69.8005 48.5265 69.7239 48.6987 69.5922 48.8239C69.4605 48.9491 69.2843 49.0173 69.1022 49.0134Z" fill="url(#paint5_linear_0_1122)"/>
<path d="M81.6503 49.0134H74.7695C74.5831 49.0132 74.4045 48.9394 74.2727 48.8082C74.141 48.677 74.0669 48.4991 74.0667 48.3136V20.0055C74.0669 19.82 74.141 19.6421 74.2727 19.5109C74.4045 19.3797 74.5831 19.3059 74.7695 19.3057H81.6503C81.8366 19.3059 82.0152 19.3797 82.147 19.5109C82.2787 19.6421 82.3529 19.82 82.3531 20.0055V48.3136C82.3529 48.4991 82.2787 48.677 82.147 48.8082C82.0152 48.9394 81.8366 49.0132 81.6503 49.0134Z" fill="url(#paint6_linear_0_1122)"/>
<path d="M28.0176 35.3386C28.8021 35.3386 29.4381 34.7052 29.4381 33.9239C29.4381 33.1426 28.8021 32.5093 28.0176 32.5093C27.233 32.5093 26.597 33.1426 26.597 33.9239C26.597 34.7052 27.233 35.3386 28.0176 35.3386Z" fill="#3F3D56"/>
<path d="M40.5657 26.1433C41.3502 26.1433 41.9862 25.5099 41.9862 24.7286C41.9862 23.9473 41.3502 23.314 40.5657 23.314C39.7811 23.314 39.1451 23.9473 39.1451 24.7286C39.1451 25.5099 39.7811 26.1433 40.5657 26.1433Z" fill="#3F3D56"/>
<path d="M53.1138 35.3386C53.8983 35.3386 54.5343 34.7052 54.5343 33.9239C54.5343 33.1426 53.8983 32.5093 53.1138 32.5093C52.3292 32.5093 51.6932 33.1426 51.6932 33.9239C51.6932 34.7052 52.3292 35.3386 53.1138 35.3386Z" fill="#3F3D56"/>
<path d="M65.6617 21.6638C66.4462 21.6638 67.0822 21.0304 67.0822 20.2491C67.0822 19.4678 66.4462 18.8345 65.6617 18.8345C64.8771 18.8345 64.2411 19.4678 64.2411 20.2491C64.2411 21.0304 64.8771 21.6638 65.6617 21.6638Z" fill="#3F3D56"/>
<path d="M78.2098 16.4763C78.9943 16.4763 79.6303 15.8429 79.6303 15.0616C79.6303 14.2803 78.9943 13.647 78.2098 13.647C77.4252 13.647 76.7892 14.2803 76.7892 15.0616C76.7892 15.8429 77.4252 16.4763 78.2098 16.4763Z" fill="#3F3D56"/>
<path d="M53.1435 34.2408L40.5657 24.8588L28.1595 34.1126L27.8757 33.7351L40.5657 24.2694L53.0837 33.6069L65.5234 20.0503L65.5734 20.0301L78.1212 14.9951L78.2983 15.4327L65.8001 20.4475L53.1435 34.2408Z" fill="#3F3D56"/>
<path d="M177.12 89.6279L177.092 89.6108C176.623 89.3225 176.272 88.875 176.105 88.3497C175.935 87.8143 175.968 87.2353 176.197 86.7223C176.426 86.2093 176.835 85.7979 177.347 85.5661C177.859 85.3344 178.439 85.2984 178.976 85.465L179.017 85.4777L179.06 85.476L187.082 85.1551L189.206 88.6189L180.674 88.3351L180.496 88.3292L180.432 88.4952C180.313 88.8063 180.126 89.0875 179.886 89.3188C179.645 89.5501 179.357 89.726 179.041 89.834C178.725 89.942 178.39 89.9795 178.058 89.9439C177.726 89.9083 177.406 89.8004 177.12 89.6279Z" fill="white" stroke="black" stroke-width="0.5"/>
<path d="M227.527 109.145L227.526 109.146C227.158 109.571 226.647 109.846 226.09 109.92C225.532 109.993 224.967 109.86 224.502 109.545C224.036 109.23 223.702 108.755 223.564 108.211C223.425 107.667 223.491 107.09 223.749 106.592L223.769 106.553L223.775 106.511L224.863 98.5639L228.649 97.0808L226.875 105.423L226.838 105.598L226.991 105.689C227.277 105.862 227.521 106.095 227.707 106.372C227.893 106.649 228.015 106.963 228.067 107.292C228.118 107.622 228.096 107.958 228.003 108.278C227.91 108.599 227.747 108.894 227.527 109.145Z" fill="white" stroke="black" stroke-width="0.5"/>
<path d="M206.392 143.505L206.391 154.906L203.774 154.905L202.367 143.505L206.392 143.505Z" fill="white" stroke="black" stroke-width="0.5"/>
<path d="M197.723 157.896C197.738 157.463 197.831 157.036 197.997 156.634C198.179 156.195 198.446 155.796 198.783 155.459C199.12 155.123 199.519 154.856 199.959 154.674C200.399 154.492 200.871 154.398 201.347 154.398H201.347H201.347H201.347L207.179 154.399L207.179 157.897L197.723 157.896Z" fill="white" stroke="black" stroke-width="0.5"/>
<path d="M221.505 143.505L221.505 154.906L218.887 154.905L217.48 143.505L221.505 143.505Z" fill="white" stroke="black" stroke-width="0.5"/>
<path d="M212.837 157.896C212.852 157.463 212.944 157.036 213.111 156.634C213.293 156.195 213.56 155.796 213.896 155.459C214.233 155.123 214.633 154.856 215.073 154.674C215.513 154.492 215.984 154.398 216.46 154.398H216.46H216.461H216.461L222.292 154.399L222.292 157.897L212.837 157.896Z" fill="white" stroke="black" stroke-width="0.5"/>
<path d="M202.98 107.417C210.53 104.706 216.742 104.925 222.005 108.03L222.741 147.2L222.741 147.2C222.743 147.318 222.722 147.434 222.678 147.543C222.635 147.652 222.57 147.751 222.488 147.835C222.406 147.919 222.308 147.985 222.199 148.031C222.091 148.076 221.975 148.1 221.857 148.1H218.171C217.967 148.099 217.768 148.028 217.61 147.898C217.452 147.768 217.344 147.587 217.304 147.387C217.304 147.387 217.304 147.387 217.304 147.387L212.283 121.867C212.254 121.72 212.174 121.589 212.056 121.496C211.939 121.403 211.793 121.355 211.643 121.361C211.494 121.366 211.352 121.425 211.242 121.526C211.132 121.627 211.061 121.764 211.043 121.912L202.98 107.417ZM202.98 107.417L201.754 147.608C201.754 147.608 201.754 147.608 201.754 147.608C201.747 147.84 201.833 148.066 201.991 148.236C202.15 148.406 202.369 148.507 202.601 148.517M202.98 107.417L202.601 148.517M202.601 148.517C202.602 148.517 202.602 148.517 202.602 148.517L206.971 148.692C206.971 148.692 206.972 148.692 206.972 148.692C206.984 148.692 206.996 148.692 207.007 148.692C207.223 148.691 207.431 148.612 207.592 148.469C207.754 148.326 207.858 148.129 207.885 147.916C207.885 147.915 207.885 147.915 207.885 147.915L211.043 121.913L202.601 148.517Z" fill="white" stroke="black" stroke-width="0.5"/>
<path d="M217.152 65.6634C217.152 68.9388 214.495 71.5944 211.216 71.5944C207.937 71.5944 205.279 68.9388 205.279 65.6634C205.279 62.388 207.937 59.7324 211.216 59.7324C214.495 59.7324 217.152 62.388 217.152 65.6634Z" fill="white" stroke="black" stroke-width="0.5"/>
<path d="M182.369 88.3067L182.369 88.3065C182.316 88.135 182.315 87.9513 182.369 87.7798L183.01 85.7285C183.01 85.7285 183.01 85.7284 183.01 85.7283C183.064 85.5553 183.171 85.4031 183.315 85.2924C183.459 85.1817 183.633 85.1177 183.815 85.1093C183.815 85.1093 183.815 85.1093 183.815 85.1093L191.931 84.7508L191.985 84.7484L192.034 84.7236L205.184 77.9891C205.604 77.8577 206.046 77.8091 206.484 77.8459C206.93 77.8833 207.364 78.0081 207.761 78.2132C208.158 78.4182 208.511 78.6994 208.799 79.0408C209.088 79.3822 209.306 79.777 209.441 80.2026C209.577 80.6282 209.627 81.0763 209.589 81.5213C209.551 81.9663 209.425 82.3995 209.219 82.796C209.014 83.1925 208.732 83.5446 208.39 83.8322C208.048 84.1198 207.652 84.3372 207.226 84.472L207.2 84.4803L207.176 84.4941L199.106 89.1706L199.106 89.1706C196.709 90.56 193.889 91.0323 191.17 90.4996L191.169 90.4996L183.043 88.9088C183.043 88.9088 183.043 88.9088 183.043 88.9088C183.042 88.9088 183.042 88.9088 183.042 88.9088C182.921 88.8849 182.805 88.8356 182.704 88.7642L182.56 88.9687L182.704 88.7642C182.602 88.6928 182.517 88.6009 182.453 88.4944L182.453 88.4943C182.418 88.4353 182.39 88.3723 182.369 88.3067Z" fill="white" stroke="black" stroke-width="0.5"/>
<path d="M227.367 103.38L227.366 103.38C227.197 103.441 227.013 103.449 226.839 103.403C226.839 103.403 226.839 103.403 226.839 103.403L224.761 102.85C224.761 102.85 224.761 102.85 224.761 102.85C224.585 102.803 224.428 102.703 224.312 102.565C224.195 102.426 224.123 102.254 224.107 102.073C224.107 102.073 224.107 102.073 224.107 102.073L223.403 93.9873L223.398 93.9329L223.371 93.8855L216.076 81.0468C215.927 80.6331 215.86 80.1944 215.878 79.7549C215.896 79.3087 216.003 78.8705 216.191 78.4654C216.379 78.0603 216.645 77.6961 216.974 77.3938C217.303 77.0915 217.689 76.857 218.109 76.7037C218.529 76.5503 218.975 76.4811 219.421 76.5001C219.868 76.5191 220.306 76.6259 220.712 76.8144C221.117 77.0028 221.481 77.2692 221.783 77.5984C222.086 77.9275 222.32 78.3129 222.473 78.7326L222.482 78.7584L222.497 78.7816L227.518 86.6376L227.518 86.6377C229.009 88.9707 229.601 91.7656 229.185 94.5023L229.185 94.5023L227.94 102.682C227.921 102.805 227.877 102.922 227.81 103.026C227.743 103.131 227.655 103.22 227.551 103.288L227.551 103.288C227.493 103.326 227.431 103.357 227.367 103.38Z" fill="white" stroke="black" stroke-width="0.5"/>
<path d="M204.633 76.8088L204.633 76.8098C203.583 77.948 202.803 79.307 202.35 80.7865C201.896 82.266 201.78 83.8284 202.011 85.3585L202.011 85.3589L203.474 95.1668L203.478 95.1951L203.475 95.2237L202.31 109.664C202.3 109.786 202.316 109.908 202.355 110.023C202.395 110.138 202.458 110.244 202.541 110.333C202.624 110.423 202.724 110.494 202.836 110.543C202.947 110.592 203.068 110.618 203.19 110.618L204.633 76.8088ZM204.633 76.8088C205.671 75.6722 206.95 74.7828 208.378 74.2062C209.805 73.6296 211.344 73.3806 212.881 73.4774L212.881 73.4774M204.633 76.8088L212.881 73.4774M212.881 73.4774C212.983 73.4838 213.085 73.4909 213.186 73.4988L213.195 73.4995M212.881 73.4774L213.195 73.4995M213.195 73.4995C214.648 73.6156 216.06 74.0396 217.336 74.7434C218.615 75.4487 219.729 76.4186 220.602 77.5884L220.602 77.5886C221.491 78.7752 222.116 80.1375 222.435 81.5845C222.754 83.0316 222.76 84.5301 222.453 85.9798L222.453 85.9799C221.245 91.6959 221.551 97.6281 223.341 103.19L223.341 103.19L225 108.339L225 108.339C225.042 108.467 225.053 108.603 225.034 108.737C225.014 108.871 224.964 108.998 224.887 109.109C224.811 109.22 224.709 109.313 224.592 109.379C224.474 109.445 224.342 109.483 224.207 109.49L224.207 109.49L215.875 109.938L213.78 106.323L213.314 105.518V106.448V110.075L203.238 110.616L203.236 110.616C203.222 110.617 203.206 110.618 203.19 110.618L213.195 73.4995Z" fill="white" stroke="black" stroke-width="0.5"/>
<path d="M206.197 63.2646C206.022 63.2747 205.842 63.293 205.669 63.3107C205.615 63.3162 205.561 63.3217 205.509 63.3268C205.283 63.3489 205.067 63.3656 204.86 63.3615C204.45 63.3535 204.09 63.265 203.781 62.9881L203.614 63.1744L203.781 62.9881C203.559 62.7896 203.394 62.3983 203.322 61.9327C203.252 61.4734 203.281 61.0026 203.39 60.6891C203.471 60.4547 203.672 60.2242 203.984 60.0017C204.293 59.7812 204.688 59.585 205.117 59.4109C205.794 59.1365 206.526 58.9289 207.101 58.7656C207.257 58.7212 207.403 58.68 207.532 58.6417C208.956 58.2306 210.455 58.1417 211.918 58.3816C213.381 58.6215 214.773 59.1841 215.991 60.0284C216.722 60.5431 217.369 61.1666 217.66 61.9505C217.952 62.7355 217.795 63.686 217.188 64.1639L216.973 64.3332L217.161 64.5321C217.686 65.088 218.056 65.7722 218.234 66.516C218.411 67.2593 218.39 68.0362 218.173 68.7688C218.018 69.2652 217.557 69.7836 216.991 70.2544C216.433 70.7184 215.811 71.106 215.391 71.3476C215.285 71.4083 215.07 71.4777 214.781 71.5333C214.499 71.5875 214.171 71.6242 213.856 71.6317C213.538 71.6393 213.248 71.6168 213.037 71.5609C212.802 71.499 212.763 71.4249 212.76 71.4106L212.757 71.3994C212.757 71.3992 212.757 71.3989 212.757 71.3987C212.709 71.198 212.703 70.9859 212.716 70.7558C212.722 70.6407 212.733 70.5242 212.744 70.4032C212.745 70.3926 212.746 70.382 212.747 70.3713C212.758 70.2615 212.769 70.1477 212.776 70.0341C212.809 69.5415 212.77 68.9185 212.367 68.4835C211.99 68.0763 211.475 67.9968 211.003 67.9805C210.85 67.9752 210.688 67.9765 210.531 67.9778C210.449 67.9785 210.368 67.9792 210.292 67.9789C210.061 67.9779 209.847 67.9686 209.65 67.9319C209.193 67.8289 208.789 67.5636 208.513 67.1852C208.237 66.8069 208.109 66.3414 208.151 65.8753C208.162 65.7876 208.18 65.6974 208.201 65.602L208.201 65.6012C208.264 65.3098 208.259 65.0077 208.186 64.7186C208.113 64.4294 207.974 64.1611 207.78 63.9347C207.586 63.7083 207.342 63.53 207.067 63.4138C206.792 63.2976 206.495 63.2465 206.197 63.2646ZM206.197 63.2646C206.197 63.2646 206.197 63.2646 206.198 63.2646L206.212 63.5142L206.197 63.2647C206.197 63.2647 206.197 63.2646 206.197 63.2646Z" fill="#7247FF" stroke="black" stroke-width="0.5"/>
</g>
<defs>
<linearGradient id="paint0_linear_0_1122" x1="41.6475" y1="103.894" x2="63.5823" y2="103.98" gradientUnits="userSpaceOnUse">
<stop stop-color="#4614E8"/>
<stop offset="1" stop-color="#BCA7FF"/>
</linearGradient>
<linearGradient id="paint1_linear_0_1122" x1="163.103" y1="64.5092" x2="180.426" y2="68.5037" gradientUnits="userSpaceOnUse">
<stop stop-color="#4614E8"/>
<stop offset="1" stop-color="#BCA7FF"/>
</linearGradient>
<linearGradient id="paint2_linear_0_1122" x1="25.4217" y1="38.1601" x2="34.9028" y2="44.7401" gradientUnits="userSpaceOnUse">
<stop stop-color="#4614E8"/>
<stop offset="1" stop-color="#BCA7FF"/>
</linearGradient>
<linearGradient id="paint3_linear_0_1122" x1="37.9697" y1="29.1941" x2="50.2444" y2="33.8592" gradientUnits="userSpaceOnUse">
<stop stop-color="#4614E8"/>
<stop offset="1" stop-color="#BCA7FF"/>
</linearGradient>
<linearGradient id="paint4_linear_0_1122" x1="50.5177" y1="38.1601" x2="59.9988" y2="44.7401" gradientUnits="userSpaceOnUse">
<stop stop-color="#4614E8"/>
<stop offset="1" stop-color="#BCA7FF"/>
</linearGradient>
<linearGradient id="paint5_linear_0_1122" x1="63.0658" y1="25.6544" x2="75.7903" y2="29.7577" gradientUnits="userSpaceOnUse">
<stop stop-color="#4614E8"/>
<stop offset="1" stop-color="#BCA7FF"/>
</linearGradient>
<linearGradient id="paint6_linear_0_1122" x1="75.6139" y1="19.2841" x2="88.8142" y2="22.6286" gradientUnits="userSpaceOnUse">
<stop stop-color="#4614E8"/>
<stop offset="1" stop-color="#BCA7FF"/>
</linearGradient>
<clipPath id="clip0_0_1122">
<rect width="231" height="161" fill="white" transform="translate(0.747986)"/>
</clipPath>
</defs>
</svg>
